<?xml version="1.0" encoding="utf-8"?>
<!-- Generator: Adobe Illustrator 22.1.0, SVG Export Plug-In . SVG Version: 6.00 Build 0)  -->
<svg version="1.1" id="レイヤー_1" xmlns="http://www.w3.org/2000/svg" xmlns:xlink="http://www.w3.org/1999/xlink" x="0px"
	 y="0px" viewBox="0 0 75.2 80.6" style="enable-background:new 0 0 75.2 80.6;" xml:space="preserve">
<g>
	<path d="M46.3,33.6c-0.5,0-1,0.4-1,1c0,1.2-0.5,2.4-1.4,3.3c-0.9,0.9-2,1.4-3.3,1.4s-2.4-0.5-3.3-1.4c-0.9-0.9-1.4-2-1.4-3.3V21.7
		c0-0.5-0.4-1-1-1c-0.5,0-1,0.4-1,1v12.9c0,1.8,0.7,3.4,1.9,4.7c0.2,0.2,0.3,0.3,0.5,0.4c-1.4,1-2.8,2-4.4,2.7
		c-1.6,0.8-3.4,1.3-5.4,1.3c-3.3,0-6.3-1.4-8.2-3.6c0,0,0,0,0,0c-0.3-0.3-0.6-0.6-0.8-1c-0.9-1.3-1.4-2.9-1.4-4.6
		c0-1.1,0.2-2.3,0.7-3.4c0.2-0.3,0.6-0.5,0.9-0.4l3.1,0.8c0.2,0.1,0.4,0.2,0.5,0.4c0.1,0.2,0.1,0.5,0,0.7c-0.3,0.6-0.4,1.2-0.4,1.8
		c0,1.1,1.2,3.3,3.3,3.1c2.5-0.2,3.2-2.6,3.2-5.5c0-2.2-1-4.7-1-8.5c0-3.7,1.9-7,4.7-9c-2.4-0.9-5.1-1.3-7.9-1.3
		c-4.2,0-8.3,1.1-11.6,3c-0.8,0.5-1.4,1.4-1.4,2.4v29.2c0,0.4,0.3,0.6,0.4,0.7c0.1,0.1,0.4,0.2,0.8,0c3.4-1.8,7.5-2.8,11.8-2.8
		c5.2,0,10.1,1.5,13.9,4.1l0,0c0,0,0,0,0,0v-9.6c1,0.5,2.1,0.8,3.2,0.8c1.8,0,3.4-0.7,4.7-1.9c1.2-1.2,1.9-2.9,1.9-4.7
		C47.3,34,46.9,33.6,46.3,33.6z"/>
	<path d="M75.2,26.5C75.2,9,63.8,3.9,63.8,3.9C58,1.2,48.1,0.1,37.7,0h-0.3c-10.3,0.1-20.2,1.2-26,3.9C11.5,3.9,0,9,0,26.5
		c0,4-0.1,8.8,0,13.9c0.4,17.1,3.1,34,19,38.2c7.3,1.9,13.6,2.3,18.6,2.1c9.1-0.5,14.3-3.3,14.3-3.3l-0.3-6.6c0,0-6.5,2.1-13.9,1.8
		c-7.3-0.3-14.9-0.8-16.1-9.7c-0.1-0.8-0.2-1.6-0.2-2.5c0,0,7.1,1.7,16.2,2.2c5.5,0.3,10.7-0.3,16-0.9c10.1-1.2,18.9-7.4,20-13.1
		C75.4,39.4,75.2,26.5,75.2,26.5z M66.3,47.9c0,1-0.5,1.9-1.3,2.4c-0.8,0.5-1.8,0.5-2.7,0.1c-3.2-1.7-6.9-2.6-10.8-2.6
		c-4.8,0-9.3,1.3-12.7,3.8c-0.3,0.2-0.8,0.4-1.2,0.4c-0.4,0-0.8-0.1-1.2-0.4l0,0c-3.4-2.4-7.9-3.8-12.7-3.8c-3.9,0-7.7,0.9-10.8,2.6
		c-0.9,0.5-1.9,0.4-2.7-0.1c-0.8-0.5-1.3-1.4-1.3-2.4V18.7c0-1.6,0.9-3.2,2.3-4c3.5-2.1,8-3.3,12.6-3.3c3.6,0,7.1,0.7,10.2,2.1
		c1.2-0.5,2.6-0.8,4-0.8c1.9,0,3.5,0,4.9,0.1c2.7-0.9,5.6-1.4,8.7-1.4c4.6,0,9,1.2,12.6,3.3c1.4,0.9,2.3,2.4,2.3,4V47.9z"/>
</g>
</svg>
